<svg width="24" height="26" viewBox="0 0 24 26" fill="none" xmlns="http://www.w3.org/2000/svg">
<path d="M10 21H6.5C5.137 21 4 20.153 4 18.8V4.4C4 4.176 4.176 4 4.4 4H19.6C19.824 4 20 4.176 20 4.4V18.8C20 20.153 18.863 21 17.5 21H16C14.542 21 13.605 21.276 12.4 22.5C12.137 22.753 11.77 23.168 11.3 23.745C11.1594 23.8955 10.9658 23.9853 10.7601 23.9956C10.5545 24.0058 10.3529 23.9357 10.198 23.8C10.035 23.655 10 23.454 10 23.237V21ZM6 6V18.4C6 18.763 6.211 19 6.6 19H11.7V20.7C13.007 19.54 14.288 19 16 19H17.4C17.789 19 18 18.763 18 18.4V6H6Z" fill="#FDFCFC"/>
</svg>
